<?xml version="1.0" encoding="UTF-8" standalone="no"?>
<!-- Created with Inkscape (http://www.inkscape.org/) -->

<svg
   xmlns:dc="http://purl.org/dc/elements/1.1/"
   xmlns:cc="http://creativecommons.org/ns#"
   xmlns:rdf="http://www.w3.org/1999/02/22-rdf-syntax-ns#"
   xmlns:svg="http://www.w3.org/2000/svg"
   xmlns="http://www.w3.org/2000/svg"
   xmlns:xlink="http://www.w3.org/1999/xlink"
   xmlns:sodipodi="http://sodipodi.sourceforge.net/DTD/sodipodi-0.dtd"
   xmlns:inkscape="http://www.inkscape.org/namespaces/inkscape"
   width="744.09448819"
   height="1052.3622047"
   id="svg2"
   version="1.1"
   inkscape:version="0.91 r13725"
   sodipodi:docname="sticker_00.svg">
  <defs
     id="defs4">
    <clipPath
       clipPathUnits="userSpaceOnUse"
       id="clipPath4168">
      <circle
         style="opacity:1;fill:#ff0000;fill-opacity:1;stroke:#dc3264;stroke-width:4;stroke-linecap:round;stroke-linejoin:round;stroke-miterlimit:4;stroke-dasharray:none;stroke-dashoffset:10.60000038;stroke-opacity:1"
         id="circle4170"
         cx="77.024132"
         cy="63.1703"
         r="45.204327" />
    </clipPath>
  </defs>
  <sodipodi:namedview
     id="base"
     pagecolor="#ffffff"
     bordercolor="#666666"
     borderopacity="1.0"
     inkscape:pageopacity="0.0"
     inkscape:pageshadow="2"
     inkscape:zoom="1.979899"
     inkscape:cx="642.56147"
     inkscape:cy="849.09666"
     inkscape:document-units="px"
     inkscape:current-layer="layer1"
     showgrid="false"
     inkscape:window-width="3436"
     inkscape:window-height="1393"
     inkscape:window-x="1600"
     inkscape:window-y="22"
     inkscape:window-maximized="0" />
  <metadata
     id="metadata7">
    <rdf:RDF>
      <cc:Work
         rdf:about="">
        <dc:format>image/svg+xml</dc:format>
        <dc:type
           rdf:resource="http://purl.org/dc/dcmitype/StillImage" />
        <dc:title />
      </cc:Work>
    </rdf:RDF>
  </metadata>
  <g
     inkscape:label="Layer 1"
     inkscape:groupmode="layer"
     id="layer1">
    <rect
       style="opacity:1;fill:#999999;fill-opacity:1;stroke:none;stroke-width:4;stroke-linecap:round;stroke-linejoin:round;stroke-miterlimit:4;stroke-dasharray:none;stroke-dashoffset:10.60000038;stroke-opacity:1"
       id="rect4174"
       width="521.23871"
       height="408.60669"
       x="-16.667517"
       y="-87.594971"
       rx="5.6665421"
       ry="12.193321" />
    <g
       id="g4182">
      <path
         d="m 96.216797,15.929688 c -14.086649,-2.35e-4 -28.08611,5.799 -38.046875,15.759765 -9.960765,9.960765 -15.76,23.960226 -15.759766,38.046875 -2.35e-4,14.08665 5.799001,28.086109 15.759766,38.046872 9.960765,9.96077 23.960225,15.76 38.046875,15.75977 14.086653,2.3e-4 28.086113,-5.799 38.046873,-15.75977 9.96077,-9.960763 15.76,-23.960221 15.75977,-38.046872 2.3e-4,-14.08665 -5.799,-28.08611 -15.75977,-38.046875 -9.96076,-9.960765 -23.96022,-15.760001 -38.046873,-15.759765 z"
         id="path4172"
         style="opacity:1;fill:#ffffff;fill-opacity:1;stroke:none;stroke-width:2;stroke-linecap:round;stroke-linejoin:round;stroke-miterlimit:4;stroke-dasharray:none;stroke-dashoffset:10.60000038;stroke-opacity:1"
         xlink:href="#circle4166"
         inkscape:original="M 96.216797 24.53125 A 45.204327 45.204327 0 0 0 51.011719 69.736328 A 45.204327 45.204327 0 0 0 96.216797 114.94141 A 45.204327 45.204327 0 0 0 141.42188 69.736328 A 45.204327 45.204327 0 0 0 96.216797 24.53125 z "
         inkscape:radius="8.6015692"
         sodipodi:type="inkscape:offset" />
      <path
         d="m 189.62891,26.8125 a 7.5768994,7.5768994 0 0 0 -1.0625,0.105469 l -6.50977,1.121093 a 7.5768994,7.5768994 0 0 0 -6.29102,7.466797 l 0,10.408203 a 7.5768994,7.5768994 0 0 0 -0.006,-0.002 c -0.76397,-0.286489 -1.44516,-0.479411 -2.24415,-0.693359 -0.95441,-0.269944 -1.92498,-0.464537 -2.93945,-0.630859 -1.09741,-0.22448 -2.22225,-0.386606 -3.37695,-0.498047 -1.31348,-0.173286 -2.63829,-0.271485 -3.96875,-0.271485 -5.26856,0 -10.40531,1.293253 -14.4375,4.517579 -4.02235,3.174319 -6.43945,8.486071 -6.43945,13.558593 0,2.498684 0.42086,5.080013 1.64062,7.519531 0.994,1.988002 2.40776,3.807547 4.10938,5.253907 0.0277,0.02359 0.0639,0.03516 0.0918,0.05859 a 7.5768994,7.5768994 0 0 0 -5.04492,5.615235 l -1.18945,5.599609 a 7.5768994,7.5768994 0 0 0 4.42578,8.53711 c 1.41387,0.60594 2.66086,0.95369 4.50781,1.474609 3.00804,0.919049 6.10397,1.167969 9.74609,1.167969 5.55073,0 10.66153,-0.958482 14.94336,-3.935547 0.39135,-0.269355 0.69155,-0.652906 1.05469,-0.960938 a 7.5768994,7.5768994 0 0 0 6.70313,4.056641 l 6.50976,0 a 7.5768994,7.5768994 0 0 0 7.47461,-6.355469 c 0.64453,0.903056 1.33793,1.824931 1.84961,2.677735 a 7.5768994,7.5768994 0 0 0 6.4961,3.677734 l 7.63085,0 a 7.5768994,7.5768994 0 0 0 3.26758,-0.751953 7.5768994,7.5768994 0 0 0 3.27539,0.751953 l 6.50977,0 a 7.5768994,7.5768994 0 0 0 5.63281,-2.521484 7.5768994,7.5768994 0 0 0 5.63086,2.521484 l 6.50977,0 a 7.5768994,7.5768994 0 0 0 7.49023,-6.492188 7.5768994,7.5768994 0 0 0 7.49024,6.492188 l 6.50976,0 a 7.5768994,7.5768994 0 0 0 7.49024,-6.492188 7.5768994,7.5768994 0 0 0 7.49023,6.492188 l 6.50977,0 a 7.5768994,7.5768994 0 0 0 6.77539,-4.193359 c 0.32119,0.279813 0.57623,0.631629 0.91796,0.884765 a 7.5768994,7.5768994 0 0 0 0.15039,0.107422 c 2.13025,1.499061 4.54149,2.517061 7.04883,3.126953 2.3997,0.58371 4.89375,0.84375 7.46094,0.84375 1.66605,0 3.33627,-0.08075 5.00586,-0.240234 1.51826,-0.09754 2.95534,-0.215958 4.29883,-0.365235 1.32033,-0.146703 2.51631,-0.294741 3.59765,-0.449218 a 7.5768994,7.5768994 0 0 0 0.28321,-0.04687 c 1.00736,-0.183156 1.77776,-0.31843 2.26953,-0.400391 a 7.5768994,7.5768994 0 0 0 2.92969,-1.158203 l -0.84571,4.029297 a 7.5768994,7.5768994 0 0 0 4.95117,8.718748 c 1.94573,0.66884 4.0377,1.18947 6.32618,1.61524 a 7.5768994,7.5768994 0 0 0 0.0312,0.004 c 2.53894,0.46162 5.16505,0.6836 7.86523,0.6836 6.9617,0 13.32602,-1.45262 18.13672,-5.64258 4.37168,-3.807596 6.31228,-9.403104 6.75,-15.369142 0.19715,0.241007 0.33401,0.526878 0.54102,0.759765 2.28465,2.570229 5.17198,4.55697 8.34765,5.917969 a 7.5768994,7.5768994 0 0 0 0.16992,0.07227 c 3.43211,1.372845 7.15751,1.941406 11.07422,1.941406 2.97898,0 5.78597,-0.26726 8.45313,-0.900391 2.27005,-0.527848 3.91297,-0.898659 6.01172,-2.009765 a 7.5768994,7.5768994 0 0 0 3.92773,-7.941407 l -0.91016,-5.460937 a 7.5768994,7.5768994 0 0 0 -0.57226,-1.859375 7.5768994,7.5768994 0 0 0 3.97656,-5.753907 c 0.0898,-0.718485 0.12891,-1.426453 0.12891,-2.130859 l 0,-1.119141 c 0,-7.298045 -1.46109,-13.870549 -5.74024,-18.851562 -4.12452,-4.845277 -10.54684,-7.275391 -17.02539,-7.275391 -3.05741,0 -6.10104,0.598174 -8.94531,1.722657 -2.99676,1.184763 -5.72479,3.023919 -7.9707,5.33789 -0.50443,0.519716 -0.87584,1.148025 -1.32618,1.712891 A 7.5768994,7.5768994 0 0 0 365.46094,46.0625 c -1.69464,-0.410821 -3.69416,-0.82186 -6.00196,-1.248047 -2.90428,-0.603165 -6.02118,-0.855469 -9.43359,-0.855469 -3.58709,0 -7.09573,0.624456 -10.32227,1.986328 -3.094,1.261258 -5.92271,3.147437 -8.20898,5.572266 a 7.5768994,7.5768994 0 0 0 -0.006,0.0039 c -0.91791,0.975284 -1.67786,2.080039 -2.4082,3.201172 -0.74357,-1.591095 -1.64411,-3.10568 -2.82813,-4.414062 -1.98776,-2.289665 -4.58639,-3.937206 -7.33203,-4.941406 -2.92106,-1.13302 -5.99776,-1.548829 -9.24804,-1.548829 -2.69408,0 -5.28444,0.221248 -7.76954,0.69336 -2.16702,0.362255 -3.84146,0.665652 -5.87695,1.570312 a 7.5768994,7.5768994 0 0 0 -4.48633,7.337891 c -0.25921,-0.462539 -0.43478,-0.96562 -0.73437,-1.40625 -1.77817,-2.681461 -4.38981,-4.794725 -7.25391,-6.091797 -3.14442,-1.471117 -6.49396,-1.962891 -10.02148,-1.962891 -1.98665,0 -3.95571,0.233411 -5.86914,0.720704 -1.50879,0.343508 -2.95967,0.781564 -4.34766,1.339843 -0.29122,0.10741 -0.55143,0.275257 -0.83594,0.390625 -0.59199,-0.309026 -1.15176,-0.687854 -1.76953,-0.927734 -2.76661,-1.121118 -5.6611,-1.523438 -8.66797,-1.523438 -3.55074,0 -6.80031,0.227772 -9.80664,0.738282 a 7.5768994,7.5768994 0 0 0 -0.0254,0.0039 c -2.53965,0.439554 -4.64186,0.858704 -6.42578,1.304687 a 7.5768994,7.5768994 0 0 0 -2.42187,1.095703 c 0.93561,-1.816865 1.48242,-3.829885 1.48242,-5.646484 0,-2.844822 -1.26884,-6.306858 -3.61328,-8.52539 -2.11037,-2.041668 -5.33102,-3.320313 -8.16211,-3.320313 -2.88156,0 -6.09728,1.261576 -8.21094,3.257813 -2.39026,2.255724 -3.56641,5.74611 -3.56641,8.58789 0,1.041207 0.32107,2.166573 0.62696,3.273438 a 7.5768994,7.5768994 0 0 0 -0.0137,0 l -7.63086,0 A 7.5768994,7.5768994 0 0 0 198.51953,47.375 c -0.29837,0.348104 -0.74382,0.845576 -1.0918,1.244141 l 0,-14.234375 A 7.5768994,7.5768994 0 0 0 189.62891,26.8125 Z m 140.64257,30.884766 c 0.005,0.01693 0.008,0.03255 0.004,0.02344 -0.002,-0.0076 -0.002,-0.01582 -0.004,-0.02344 z m -17.08593,1.46875 0.49804,0.04883 c -0.10067,-0.01342 -0.20017,-0.0074 -0.30078,-0.01953 -0.0665,-0.005 -0.13073,-0.02486 -0.19726,-0.0293 z m 54.01757,0.24414 c -0.003,0.0081 -0.003,0.01734 -0.006,0.02539 -0.003,0.0077 -0.009,0.0138 -0.0117,0.02148 l 0.0176,-0.04687 z m -40.75195,0.46875 c -0.003,0.0095 -0.004,0.0198 -0.008,0.0293 -0.002,0.0061 -0.006,0.01151 -0.008,0.01758 l 0.0156,-0.04687 z m -32.44922,0.310547 0.0293,0.166016 c -0.005,-0.02852 -0.0168,-0.05548 -0.0215,-0.08398 -0.005,-0.02614 -0.003,-0.05591 -0.008,-0.08203 z m -122.28125,2.630859 0.19336,0.0918 c -0.0323,-0.01561 -0.073,-0.02935 -0.10547,-0.04492 -0.0303,-0.01373 -0.0575,-0.03326 -0.0879,-0.04688 z m 40.54883,0.326172 0,11.046875 c -0.30302,-0.370859 -0.56726,-0.763815 -0.87695,-1.130859 -1.32013,-1.646499 -2.71398,-3.149051 -4.12305,-4.623047 0.89034,-0.919969 1.78794,-1.845754 2.66016,-2.748047 a 7.5768994,7.5768994 0 0 0 0.0859,-0.08984 c 0.77665,-0.830199 1.50558,-1.638106 2.25391,-2.455078 z m 82.01367,0.359375 a 7.5768994,7.5768994 0 0 0 0.29102,0.289063 c -0.0855,0.06598 -0.16569,0.137497 -0.25,0.205078 -0.0146,-0.164237 -0.0247,-0.330826 -0.041,-0.494141 z m 55.30664,1.392579 0,9.216796 c -0.23144,0.01622 -0.34958,0.08398 -0.61328,0.08398 -0.30582,0 -0.57623,-0.05289 -0.92578,-0.179688 -0.0841,-0.03406 -0.20092,-0.124417 -0.35547,-0.269531 -0.12979,-0.151086 -0.35222,-0.503645 -0.5957,-1.103516 -0.15535,-0.4754 -0.34766,-1.4015 -0.34766,-2.841796 0,-2.503105 0.50964,-3.571356 1.07617,-4.275391 0.34922,-0.424096 0.66293,-0.584862 1.76172,-0.630859 z m -173.82422,0.220703 0,0.132812 c -0.032,-0.02392 -0.0635,-0.04855 -0.0957,-0.07227 a 7.5768994,7.5768994 0 0 0 0.0957,-0.06055 z m 1.21485,1.035156 0.13867,0.121094 c -0.0282,-0.02537 -0.0615,-0.04318 -0.0898,-0.06836 -0.0181,-0.01562 -0.0307,-0.0372 -0.0488,-0.05273 z m 29.28906,1.164062 0.0781,0.08008 c -0.0116,-0.01199 -0.0235,-0.01928 -0.0352,-0.03125 -0.015,-0.01505 -0.0279,-0.0338 -0.043,-0.04883 z m -25.04492,4.615235 0.043,0.09961 c -0.007,-0.01707 -0.0201,-0.03178 -0.0274,-0.04883 -0.007,-0.01682 -0.008,-0.03397 -0.0156,-0.05078 z m 34.7793,7.074218 0.0527,0.07227 c -0.0109,-0.01544 -0.0242,-0.02949 -0.0352,-0.04492 -0.007,-0.0094 -0.0108,-0.01797 -0.0176,-0.02734 z m 115.24414,8.871094 c 0.0442,0.0484 0.0765,0.106292 0.12109,0.154297 a 7.5768994,7.5768994 0 0 0 -0.12109,0.07813 7.5768994,7.5768994 0 0 0 0,-0.03516 l 0,-0.197266 z"
         inkscape:href="#text3150"
         id="path4180"
         style="font-style:normal;font-variant:normal;font-weight:normal;font-stretch:normal;font-size:24px;line-height:125%;font-family:Verdana;-inkscape-font-specification:Verdana;letter-spacing:0px;word-spacing:0px;fill:#ffffff;fill-opacity:1;stroke:none;stroke-opacity:1;stroke-width:4;stroke-miterlimit:4;stroke-dasharray:none"
         xlink:href="#text3150"
         inkscape:original="M 189.85156 34.384766 L 183.3418 35.505859 L 183.3418 88.705078 L 189.85156 88.705078 L 189.85156 71.205078 C 191.15823 72.091745 192.53576 73.189427 193.98242 74.496094 C 195.42909 75.80276 196.85195 77.249271 198.25195 78.835938 C 199.65195 80.375938 200.98219 82.007708 202.24219 83.734375 C 203.54885 85.414375 204.69188 87.071745 205.67188 88.705078 L 213.30273 88.705078 C 212.3694 87.071745 211.22443 85.321745 209.87109 83.455078 C 208.51776 81.541745 207.07125 79.675469 205.53125 77.855469 C 204.03792 75.988802 202.49878 74.262448 200.91211 72.675781 C 199.37211 71.089115 197.90195 69.75888 196.50195 68.685547 C 197.71529 67.425547 198.99823 66.095313 200.35156 64.695312 C 201.75156 63.248646 203.12909 61.825781 204.48242 60.425781 C 205.83576 58.979115 207.14234 57.55625 208.40234 56.15625 C 209.66234 54.75625 210.82901 53.471354 211.90234 52.304688 L 204.27148 52.304688 C 203.43148 53.284687 202.42839 54.427708 201.26172 55.734375 C 200.09505 56.994375 198.8594 58.324609 197.55273 59.724609 C 196.24607 61.124609 194.91583 62.502135 193.5625 63.855469 L 189.85156 67.564453 L 189.85156 34.384766 z M 223.06641 37.185547 C 221.89974 37.185547 220.89664 37.581667 220.05664 38.375 C 219.26331 39.121667 218.86523 40.148411 218.86523 41.455078 C 218.86523 42.761745 219.26331 43.812135 220.05664 44.605469 C 220.89664 45.352135 221.89974 45.724609 223.06641 45.724609 C 224.23307 45.724609 225.21253 45.352135 226.00586 44.605469 C 226.84586 43.812135 227.26562 42.761745 227.26562 41.455078 C 227.26562 40.148411 226.84586 39.121667 226.00586 38.375 C 225.21253 37.581667 224.23307 37.185547 223.06641 37.185547 z M 163.23047 51.394531 C 159.1238 51.394531 155.88 52.352292 153.5 54.265625 C 151.12 56.132292 149.92969 58.674531 149.92969 61.894531 C 149.92969 63.527865 150.20953 64.905391 150.76953 66.025391 C 151.32953 67.145391 152.07643 68.101198 153.00977 68.894531 C 153.9431 69.687865 155.04078 70.389427 156.30078 70.996094 C 157.60745 71.556094 158.95937 72.115781 160.35938 72.675781 C 163.25271 73.842448 165.32984 74.892839 166.58984 75.826172 C 167.84984 76.759505 168.48047 78.018802 168.48047 79.605469 C 168.48047 81.145469 167.8262 82.264844 166.51953 82.964844 C 165.25953 83.664844 163.30062 84.015625 160.64062 84.015625 C 157.93396 84.015625 155.76419 83.735781 154.13086 83.175781 C 152.49753 82.615781 151.30721 82.196016 150.56055 81.916016 L 149.37109 87.515625 C 150.02443 87.795625 151.26008 88.191745 153.08008 88.705078 C 154.90008 89.265078 157.42063 89.544922 160.64062 89.544922 C 165.26062 89.544922 168.80596 88.681745 171.2793 86.955078 C 173.7993 85.228411 175.06055 82.686172 175.06055 79.326172 C 175.06055 77.599505 174.80435 76.151042 174.29102 74.984375 C 173.77768 73.771042 173.03078 72.74625 172.05078 71.90625 C 171.11745 71.06625 169.97443 70.341042 168.62109 69.734375 C 167.26776 69.081042 165.72667 68.428724 164 67.775391 C 162.69333 67.308724 161.57396 66.865313 160.64062 66.445312 C 159.70729 66.025312 158.9131 65.581901 158.25977 65.115234 C 157.6531 64.601901 157.18604 64.042214 156.85938 63.435547 C 156.57937 62.82888 156.43945 62.129271 156.43945 61.335938 C 156.43945 59.795937 157.11737 58.674609 158.4707 57.974609 C 159.82404 57.227943 161.41047 56.855469 163.23047 56.855469 C 165.33047 56.855469 167.12776 57.064375 168.62109 57.484375 C 170.11443 57.857708 171.21016 58.232135 171.91016 58.605469 L 173.09961 53.005859 C 172.72628 52.865859 172.19023 52.702292 171.49023 52.515625 C 170.8369 52.328958 170.06635 52.165391 169.17969 52.025391 C 168.29302 51.838724 167.33721 51.698802 166.31055 51.605469 C 165.28388 51.465469 164.25714 51.394531 163.23047 51.394531 z M 309.67188 51.394531 C 307.38521 51.394531 305.26273 51.581745 303.30273 51.955078 C 301.34273 52.281745 299.94156 52.632526 299.10156 53.005859 L 299.87305 58.394531 C 300.66638 58.067865 301.85474 57.764375 303.44141 57.484375 C 305.07474 57.157708 306.96661 56.996094 309.11328 56.996094 C 310.79328 56.996094 312.14521 57.252292 313.17188 57.765625 C 314.24521 58.232292 315.08474 58.884609 315.69141 59.724609 C 316.29807 60.517943 316.71979 61.452057 316.95312 62.525391 C 317.18646 63.552057 317.30273 64.602448 317.30273 65.675781 L 317.30273 67.496094 C 317.11607 67.449427 316.78893 67.37849 316.32227 67.285156 C 315.8556 67.191823 315.29591 67.099193 314.64258 67.005859 C 314.03591 66.865859 313.38164 66.771276 312.68164 66.724609 C 311.98164 66.631276 311.30568 66.585938 310.65234 66.585938 C 308.59901 66.585938 306.63815 66.794844 304.77148 67.214844 C 302.90482 67.634844 301.27305 68.289115 299.87305 69.175781 C 298.47305 70.062448 297.35172 71.229115 296.51172 72.675781 C 295.71839 74.122448 295.32227 75.848802 295.32227 77.855469 C 295.32227 79.955469 295.67305 81.75276 296.37305 83.246094 C 297.07305 84.739427 298.0525 85.951432 299.3125 86.884766 C 300.5725 87.771432 302.0663 88.425703 303.79297 88.845703 C 305.51964 89.265703 307.40956 89.474609 309.46289 89.474609 C 310.90956 89.474609 312.35607 89.405625 313.80273 89.265625 C 315.29607 89.172292 316.67164 89.056016 317.93164 88.916016 C 319.19164 88.776016 320.31297 88.636094 321.29297 88.496094 C 322.31964 88.309427 323.11188 88.169505 323.67188 88.076172 L 323.67188 65.326172 C 323.67187 63.272839 323.43932 61.404609 322.97266 59.724609 C 322.50599 57.997943 321.7118 56.527786 320.5918 55.314453 C 319.51846 54.054453 318.07195 53.098646 316.25195 52.445312 C 314.47862 51.745313 312.28521 51.394531 309.67188 51.394531 z M 389.44531 51.394531 C 387.34531 51.394531 385.29182 51.792604 383.28516 52.585938 C 381.27849 53.379271 379.50484 54.569583 377.96484 56.15625 C 376.42484 57.742917 375.18919 59.749115 374.25586 62.175781 C 373.32253 64.555781 372.85547 67.356172 372.85547 70.576172 C 372.85547 73.329505 373.2043 75.871745 373.9043 78.205078 C 374.65096 80.491745 375.77229 82.47625 377.26562 84.15625 C 378.75896 85.83625 380.64888 87.164531 382.93555 88.144531 C 385.26888 89.077865 388.02198 89.544922 391.19531 89.544922 C 393.71531 89.544922 395.95406 89.31237 397.91406 88.845703 C 399.92073 88.379036 401.3219 87.935625 402.11523 87.515625 L 401.20508 82.054688 C 400.41174 82.428021 399.22143 82.826094 397.63477 83.246094 C 396.09477 83.619427 394.1812 83.804688 391.89453 83.804688 C 387.83453 83.804688 384.84888 82.825234 382.93555 80.865234 C 381.02221 78.905234 379.92453 76.035859 379.64453 72.255859 L 404.56445 72.255859 C 404.61112 71.882526 404.63477 71.484453 404.63477 71.064453 L 404.63477 69.945312 C 404.63477 63.691979 403.32818 59.048958 400.71484 56.015625 C 398.10151 52.935625 394.34531 51.394531 389.44531 51.394531 z M 252.03906 51.535156 C 248.81906 51.535156 245.97333 51.746016 243.5 52.166016 C 241.07333 52.586016 239.11247 52.982135 237.61914 53.355469 L 237.61914 88.705078 L 244.12891 88.705078 L 244.12891 57.974609 C 244.31557 57.927943 244.69 57.858958 245.25 57.765625 C 245.81 57.672292 246.41698 57.601354 247.07031 57.554688 C 247.77031 57.461354 248.49357 57.39237 249.24023 57.345703 C 249.9869 57.299036 250.68651 57.275391 251.33984 57.275391 C 252.87984 57.275391 254.13914 57.531589 255.11914 58.044922 C 256.14581 58.511589 256.94 59.25849 257.5 60.285156 C 258.10667 61.311823 258.52643 62.594766 258.75977 64.134766 C 258.9931 65.674766 259.10938 67.519349 259.10938 69.666016 L 259.10938 88.705078 L 265.61914 88.705078 L 265.61914 68.265625 C 265.61914 66.678958 265.52651 65.16151 265.33984 63.714844 C 265.15318 62.268177 264.87333 60.937943 264.5 59.724609 C 265.01333 59.257943 265.96914 58.745547 267.36914 58.185547 C 268.81581 57.57888 270.63674 57.275391 272.83008 57.275391 C 274.41674 57.275391 275.69969 57.531589 276.67969 58.044922 C 277.70635 58.511589 278.49859 59.25849 279.05859 60.285156 C 279.66526 61.311823 280.06333 62.594766 280.25 64.134766 C 280.48333 65.674766 280.59961 67.519349 280.59961 69.666016 L 280.59961 88.705078 L 287.10938 88.705078 L 287.10938 68.265625 C 287.10938 65.838958 286.92216 63.598255 286.54883 61.544922 C 286.22216 59.491589 285.5462 57.717943 284.51953 56.224609 C 283.53953 54.731276 282.16201 53.588255 280.38867 52.794922 C 278.61534 51.954922 276.3293 51.535156 273.5293 51.535156 C 272.08263 51.535156 270.72875 51.698724 269.46875 52.025391 C 268.20875 52.305391 267.06573 52.656172 266.03906 53.076172 C 265.0124 53.449505 264.14922 53.845625 263.44922 54.265625 C 262.74922 54.685625 262.23682 55.01276 261.91016 55.246094 C 260.83682 54.03276 259.50659 53.122292 257.91992 52.515625 C 256.33326 51.862292 254.3724 51.535156 252.03906 51.535156 z M 350.02539 51.535156 C 347.27206 51.535156 344.7988 52.002214 342.60547 52.935547 C 340.41214 53.822214 338.54586 55.08151 337.00586 56.714844 C 335.51253 58.30151 334.36951 60.215078 333.57617 62.455078 C 332.78284 64.648411 332.38672 67.074375 332.38672 69.734375 C 332.38672 72.767708 332.80648 75.382839 333.64648 77.576172 C 334.48648 79.769505 335.62951 81.612135 337.07617 83.105469 C 338.52284 84.552135 340.20385 85.626172 342.11719 86.326172 C 344.07719 87.026172 346.15237 87.375 348.3457 87.375 C 350.49237 87.375 352.35865 87.095156 353.94531 86.535156 C 355.57865 85.92849 356.67633 85.437786 357.23633 85.064453 L 357.23633 86.605469 C 357.23633 89.965469 356.37315 92.415078 354.64648 93.955078 C 352.96648 95.495078 350.18974 96.265625 346.31641 96.265625 C 344.26307 96.265625 342.28052 96.054766 340.36719 95.634766 C 338.50052 95.261432 336.91214 94.818021 335.60547 94.304688 L 334.41602 99.974609 C 335.90935 100.48794 337.65935 100.93135 339.66602 101.30469 C 341.71935 101.67802 343.88911 101.86523 346.17578 101.86523 C 352.05578 101.86523 356.4426 100.60594 359.33594 98.085938 C 362.22927 95.565938 363.67578 91.50625 363.67578 85.90625 L 363.67578 53.425781 C 362.13578 53.052448 360.22221 52.654375 357.93555 52.234375 C 355.69555 51.767708 353.05872 51.535156 350.02539 51.535156 z M 219.8457 52.304688 L 219.8457 88.705078 L 226.35547 88.705078 L 226.35547 52.304688 L 219.8457 52.304688 z M 389.375 56.925781 C 392.035 56.925781 394.11214 57.881589 395.60547 59.794922 C 397.14547 61.661589 397.89237 64.065859 397.8457 67.005859 L 379.78516 67.005859 C 379.92516 65.745859 380.205 64.508255 380.625 63.294922 C 381.09167 62.081589 381.72229 61.009505 382.51562 60.076172 C 383.30896 59.142839 384.26477 58.395937 385.38477 57.835938 C 386.55143 57.229271 387.88167 56.925781 389.375 56.925781 z M 350.0957 57.275391 C 351.96237 57.275391 353.43253 57.368021 354.50586 57.554688 C 355.62586 57.694687 356.51268 57.858255 357.16602 58.044922 L 357.16602 79.326172 C 356.32602 79.979505 355.18299 80.562839 353.73633 81.076172 C 352.28966 81.542839 350.70323 81.775391 348.97656 81.775391 C 347.71656 81.775391 346.47896 81.542839 345.26562 81.076172 C 344.09896 80.609505 343.05052 79.88625 342.11719 78.90625 C 341.23052 77.92625 340.50531 76.688646 339.94531 75.195312 C 339.43198 73.701979 339.17578 71.904687 339.17578 69.804688 C 339.17578 66.024687 340.1099 62.991745 341.97656 60.705078 C 343.8899 58.418411 346.5957 57.275391 350.0957 57.275391 z M 311.21289 71.835938 C 312.70622 71.835938 313.96552 71.928568 314.99219 72.115234 C 316.06552 72.255234 316.83607 72.442448 317.30273 72.675781 L 317.30273 83.525391 C 316.5094 83.712057 315.5063 83.851979 314.29297 83.945312 C 313.1263 83.991979 311.77242 84.015625 310.23242 84.015625 C 307.66576 84.015625 305.63591 83.572214 304.14258 82.685547 C 302.64924 81.752214 301.90234 80.11849 301.90234 77.785156 C 301.90234 76.525156 302.20583 75.522057 302.8125 74.775391 C 303.41917 73.982057 304.16607 73.375078 305.05273 72.955078 C 305.98607 72.488411 306.98917 72.184922 308.0625 72.044922 C 309.1825 71.904922 310.23289 71.835938 311.21289 71.835938 z "
         inkscape:radius="7.5761418"
         sodipodi:type="inkscape:offset" />
    </g>
    <image
       sodipodi:absref="/home/stefan/akad/projekte/skimage-branding/stickers/../logo/green_orange_snake.png"
       xlink:href="../logo/green_orange_snake.png"
       transform="translate(19.192889,6.5659916)"
       clip-path="url(#clipPath4168)"
       width="97.959274"
       height="97.959274"
       id="image3147"
       x="28.044495"
       y="14.190662" />
    <text
       xml:space="preserve"
       style="font-style:normal;font-variant:normal;font-weight:normal;font-stretch:normal;font-size:24px;line-height:125%;font-family:Verdana;-inkscape-font-specification:Verdana;letter-spacing:0px;word-spacing:0px;fill:#4d4d4d;fill-opacity:1;stroke:none"
       x="146.57016"
       y="88.705315"
       id="text3150"
       sodipodi:linespacing="125%"><tspan
         sodipodi:role="line"
         id="tspan3152"
         x="146.57016"
         y="88.705315"
         style="font-style:normal;font-variant:normal;font-weight:normal;font-stretch:normal;font-size:70px;font-family:Ubuntu;-inkscape-font-specification:Ubuntu">skimage</tspan></text>
    <rect
       style="opacity:1;fill:#ffffff;fill-opacity:1;stroke:none;stroke-width:4;stroke-linecap:round;stroke-linejoin:round;stroke-miterlimit:4;stroke-dasharray:none;stroke-dashoffset:10.60000038;stroke-opacity:1"
       id="rect4198"
       width="9.5964489"
       height="15.152288"
       x="343.45187"
       y="62.412685"
       rx="5.6665401"
       ry="12.1933" />
  </g>
</svg>
