<?xml version="1.0" encoding="UTF-8" standalone="no"?>
<!-- Created with Inkscape (http://www.inkscape.org/) -->

<svg
   xmlns:dc="http://purl.org/dc/elements/1.1/"
   xmlns:cc="http://creativecommons.org/ns#"
   xmlns:rdf="http://www.w3.org/1999/02/22-rdf-syntax-ns#"
   xmlns:svg="http://www.w3.org/2000/svg"
   xmlns="http://www.w3.org/2000/svg"
   xmlns:xlink="http://www.w3.org/1999/xlink"
   xmlns:sodipodi="http://sodipodi.sourceforge.net/DTD/sodipodi-0.dtd"
   xmlns:inkscape="http://www.inkscape.org/namespaces/inkscape"
   width="36in"
   height="24in"
   viewBox="0 0 3240 2160"
   id="svg2"
   version="1.1"
   inkscape:version="0.91 r13725"
   sodipodi:docname="poster_00.svg">
  <defs
     id="defs4">
    <style
       type="text/css"
       id="style4527">.fil0 {fill:#1B1C1F}
    .fil1 {fill:#1B1C1F;fill-rule:nonzero}</style>
  </defs>
  <sodipodi:namedview
     id="base"
     pagecolor="#ffffff"
     bordercolor="#666666"
     borderopacity="1.0"
     inkscape:pageopacity="0.0"
     inkscape:pageshadow="2"
     inkscape:zoom="0.24748737"
     inkscape:cx="2187.5402"
     inkscape:cy="843.59005"
     inkscape:document-units="px"
     inkscape:current-layer="layer1"
     showgrid="false"
     units="in"
     showguides="false"
     inkscape:window-width="1716"
     inkscape:window-height="1393"
     inkscape:window-x="3320"
     inkscape:window-y="22"
     inkscape:window-maximized="0" />
  <metadata
     id="metadata7">
    <rdf:RDF>
      <cc:Work
         rdf:about="">
        <dc:format>image/svg+xml</dc:format>
        <dc:type
           rdf:resource="http://purl.org/dc/dcmitype/StillImage" />
        <dc:title></dc:title>
      </cc:Work>
    </rdf:RDF>
  </metadata>
  <g
     inkscape:label="Layer 1"
     inkscape:groupmode="layer"
     id="layer1"
     transform="translate(0,1107.6378)">
    <g
       id="layer1-8"
       inkscape:label="Layer 1"
       transform="matrix(3.0787912,0,0,3.0787912,100.22223,-317.57941)">
      <image
         width="132.30446"
         height="132.30446"
         id="image3147"
         x="8.8462782"
         y="6.4703732"
         xlink:href="file:///home/stefan/akad/projekte/skimage-branding/logo/green_orange_snake.png"
         sodipodi:absref="/home/stefan/akad/projekte/skimage-branding/logo/green_orange_snake.png" />
      <g
         transform="translate(-105.05586,-195.43585)"
         id="g3158">
        <text
           xml:space="preserve"
           style="font-style:normal;font-variant:normal;font-weight:normal;font-stretch:normal;font-size:24px;line-height:125%;font-family:Verdana;-inkscape-font-specification:Verdana;letter-spacing:0px;word-spacing:0px;fill:#4d4d4d;fill-opacity:1;stroke:none"
           x="261.22247"
           y="278.58533"
           id="text3150"
           sodipodi:linespacing="125%"><tspan
             sodipodi:role="line"
             id="tspan3152"
             x="261.22247"
             y="278.58533"
             style="font-style:normal;font-variant:normal;font-weight:normal;font-stretch:normal;font-size:70px;font-family:Ubuntu;-inkscape-font-specification:Ubuntu">scikit-image</tspan></text>
        <text
           xml:space="preserve"
           style="font-style:normal;font-variant:normal;font-weight:normal;font-stretch:normal;font-size:24px;line-height:125%;font-family:Verdana;-inkscape-font-specification:Verdana;letter-spacing:0px;word-spacing:0px;fill:#4d4d4d;fill-opacity:1;stroke:none"
           x="262.52374"
           y="306.86957"
           id="text3154"
           sodipodi:linespacing="125%"><tspan
             sodipodi:role="line"
             id="tspan3156"
             x="262.52374"
             y="306.86957"
             style="font-style:normal;font-variant:normal;font-weight:normal;font-stretch:normal;font-size:26.5px;font-family:Ubuntu;-inkscape-font-specification:Ubuntu">image processing in python</tspan></text>
      </g>
    </g>
    <rect
       style="opacity:1;fill:none;fill-opacity:1;stroke:#000000;stroke-width:6;stroke-linecap:round;stroke-linejoin:round;stroke-miterlimit:4;stroke-dasharray:none;stroke-dashoffset:10.60000038;stroke-opacity:1"
       id="rect4292"
       width="3636.5491"
       height="589.92908"
       x="-101.01525"
       y="-388.95413"
       rx="0"
       ry="0" />
    <g
       id="g4863"
       transform="matrix(1.1442062,0,0,1.1442062,-385.46868,-37.452896)">
      <text
         sodipodi:linespacing="190%"
         id="text4205"
         y="-174.78067"
         x="2052.8572"
         style="font-style:normal;font-variant:normal;font-weight:normal;font-stretch:normal;font-size:40px;line-height:189.99999762%;font-family:Meddon;-inkscape-font-specification:Meddon;letter-spacing:0px;word-spacing:0px;fill:#000000;fill-opacity:1;stroke:none;stroke-width:1px;stroke-linecap:butt;stroke-linejoin:miter;stroke-opacity:1"
         xml:space="preserve"><tspan
           style="font-style:normal;font-variant:normal;font-weight:normal;font-stretch:normal;font-size:50px;line-height:189.99999762%;font-family:Ubuntu;-inkscape-font-specification:Ubuntu"
           y="-174.78067"
           x="2052.8572"
           id="tspan4207"
           sodipodi:role="line">http://scikit-image.org</tspan><tspan
           id="tspan4209"
           style="font-style:normal;font-variant:normal;font-weight:normal;font-stretch:normal;font-size:50px;line-height:189.99999762%;font-family:Ubuntu;-inkscape-font-specification:Ubuntu"
           y="-79.78067"
           x="2052.8572"
           sodipodi:role="line">http://gitter.im/scikit-image/scikit-image</tspan><tspan
           id="tspan4296"
           style="font-style:normal;font-variant:normal;font-weight:normal;font-stretch:normal;font-size:50px;line-height:189.99999762%;font-family:Ubuntu;-inkscape-font-specification:Ubuntu"
           y="15.219328"
           x="2052.8572"
           sodipodi:role="line">https://github.com/scikit-image/scikit-image</tspan><tspan
           id="tspan4670"
           style="font-style:normal;font-variant:normal;font-weight:normal;font-stretch:normal;font-size:50px;line-height:189.99999762%;font-family:Ubuntu;-inkscape-font-specification:Ubuntu"
           y="110.21933"
           x="2052.8572"
           sodipodi:role="line">http://googlegroups.com/group/scikit-image</tspan></text>
      <g
         style="stroke-width:8.94027424;stroke-miterlimit:4;stroke-dasharray:none"
         transform="matrix(0.39790401,0,0,0.39790401,1544.5892,194.0854)"
         id="g4222">
        <path
           inkscape:connector-curvature="0"
           style="opacity:1;fill:none;fill-opacity:1;stroke:#000000;stroke-width:8.94027424;stroke-linecap:round;stroke-linejoin:round;stroke-miterlimit:4;stroke-dasharray:none;stroke-dashoffset:10.60000038;stroke-opacity:1"
           d="m 1124.2852,327.14258 c -24.5343,0 -44.2852,19.75086 -44.2852,44.28515 l 0,4.28711 c 0,9.86013 3.1948,18.94366 8.6035,26.28711 l -2.8887,33.71289 16.8125,-21.39843 c 6.4205,3.61426 13.8364,5.68359 21.7579,5.68359 L 1190,420 c 24.5343,0 44.2852,-19.75086 44.2852,-44.28516 l 0,-4.28711 c 0,-24.53429 -19.7509,-44.28515 -44.2852,-44.28515 l -65.7148,0 z"
           transform="translate(0,-1107.6378)"
           id="rect4213" />
        <text
           xml:space="preserve"
           style="font-style:normal;font-variant:normal;font-weight:normal;font-stretch:normal;font-size:40px;line-height:125%;font-family:Meddon;-inkscape-font-specification:Meddon;letter-spacing:0px;word-spacing:0px;fill:#000000;fill-opacity:1;stroke:none;stroke-width:8.94027424;stroke-linecap:butt;stroke-linejoin:miter;stroke-miterlimit:4;stroke-dasharray:none;stroke-opacity:1"
           x="1127.1428"
           y="-727.63776"
           id="text4218"
           sodipodi:linespacing="125%"><tspan
             sodipodi:role="line"
             id="tspan4220"
             x="1127.1428"
             y="-727.63776">. . .</tspan></text>
      </g>
      <image
         width="62.421307"
         height="62.421307"
         preserveAspectRatio="none"
         xlink:href="file:///home/stefan/akad/projekte/skimage-branding/resources/GitHub-Mark-120px-plus.png"
         id="image4289"
         x="1973.8102"
         y="-31.896778"
         sodipodi:absref="/home/stefan/akad/projekte/skimage-branding/resources/GitHub-Mark-120px-plus.png" />
      <g
         transform="translate(1975.0208,-219.06638)"
         id="g4661">
        <path
           inkscape:connector-curvature="0"
           id="path1095"
           style="fill:none;stroke:#ffffff;stroke-width:8.125;stroke-linecap:round;stroke-linejoin:round"
           d="M 55.313,30 C 55.313,43.973 43.973,55.313 30,55.313 16.027,55.313 4.687,43.973 4.687,30 4.6872,16.027 16.027,4.687 30,4.687 43.973,4.6872 55.313,16.027 55.313,30 Z" />
        <path
           inkscape:connector-curvature="0"
           id="path640"
           style="fill:#ffffff;fill-rule:evenodd;stroke:#000000;stroke-width:3.29819989;stroke-linecap:round;stroke-linejoin:round"
           transform="matrix(0.94749,0,0,0.94749,0.71846,0.58976)"
           d="M 57.62,31.04 C 57.62,45.787 45.651,57.756 30.904,57.756 16.157,57.756 4.189,45.787 4.189,31.04 4.1887,16.293 16.157,4.324 30.904,4.324 45.651,4.3245 57.62,16.293 57.62,31.04 Z" />
        <path
           inkscape:connector-curvature="0"
           id="path593"
           style="fill:none;stroke:#000000;stroke-width:2.63849998;stroke-linecap:round;stroke-linejoin:round"
           transform="matrix(0.94749,0,0,0.94749,0.71846,0.58976)"
           d="m 44.667,53.957 0.891,-3.602 5.442,-8.707 -2.869,1.385 -5.64,-6.333 0.989,-0.396 5.145,4.75 4.651,-6.926 -1.386,-0.495 -1.286,1.484 -1.979,-2.177 0.891,-0.593 2.671,0.791 3.266,-2.473 2.275,0 M 40.176,5.928 l -2.732,0.9895 3.661,4.3535 -3.859,4.651 -1.187,-0.99 1.385,-1.088 -3.661,-0.99 -4.65,5.937 1.682,0.297 0.594,2.177 1.682,-2.276 -0.297,-1.781 1.088,-2.078 0.891,0 -1.188,2.276 0.891,1.187 -0.099,2.474 -5.739,1.583 -3.661,2.276 0.693,2.968 -3.562,-0.396 -0.594,2.177 -0.693,1.385 1.188,0.693 0.593,0.396 2.078,0.099 1.484,-2.771 0.792,0 0.594,-0.89 2.671,-0.891 2.672,3.562 0.989,-0.989 -2.473,-2.969 0.989,0 3.76,5.047 1.088,-2.87 1.485,-0.198 0.395,-3.364 4.948,0.99 -0.099,1.187 -5.64,2.078 0.692,1.682 3.958,-0.792 -0.099,3.661 -2.77,0.99 -4.156,-0.693 -0.692,1.188 -4.651,-1.287 -0.099,-2.276 -10.191,1.188 -0.495,2.177 -3.562,2.176 -0.792,4.75 3.859,5.541 8.312,1.286 2.473,0.99 -0.395,1.682 2.077,1.781 0.396,0.989 -1.187,1.188 2.869,1.187" />
        <path
           inkscape:connector-curvature="0"
           id="path594"
           style="fill:none;stroke:#000000;stroke-width:2.63849998;stroke-linecap:round;stroke-linejoin:round"
           transform="matrix(0.94749,0,0,0.94749,0.71846,0.58976)"
           d="m 8.0573,17.208 2.6717,-0.99 0,-0.989 0.692,0 0,0.989 1.386,-0.099 3.958,-6.035 -4.552,1.88 0,-0.099" />
        <path
           inkscape:connector-curvature="0"
           id="path595"
           style="fill:none;stroke:#000000;stroke-width:2.63849998;stroke-linecap:round;stroke-linejoin:round"
           transform="matrix(0.94749,0,0,0.94749,0.71846,0.58976)"
           d="m 16.962,14.338 4.057,-1.682 3.661,-0.494 3.958,-4.1561 -4.551,-0.5937 -3.068,3.3638 -4.057,3.562 z" />
        <path
           inkscape:connector-curvature="0"
           id="path597"
           style="fill:none;stroke:#000000;stroke-width:2.63849998;stroke-linecap:round;stroke-linejoin:round"
           transform="matrix(0.94749,0,0,0.94749,0.71846,0.58976)"
           d="m 24.581,23.54 2.573,-0.692 -1.286,-2.375 0.692,-0.594 -0.791,-0.791 -1.188,4.452 z" />
        <path
           inkscape:connector-curvature="0"
           id="path598"
           style="fill:none;stroke:#000000;stroke-width:2.63849998;stroke-linecap:round;stroke-linejoin:round"
           transform="matrix(0.94749,0,0,0.94749,0.71846,0.58976)"
           d="m 24.186,22.353 0.296,-1.583 -1.682,1.088 1.386,0.495 z" />
      </g>
      <g
         transform="matrix(1.3219954,0,0,1.3219954,1381.8375,-644.27523)"
         inkscape:label="Calque 1"
         id="layer1-7">
        <g
           transform="translate(-560.19,271.89)"
           inkscape:export-filename="C:\Users\lguyot\Desktop\icon-email.png"
           inkscape:export-xdpi="90"
           inkscape:export-ydpi="90"
           id="g6564">
          <rect
             x="1010.5"
             y="271.42999"
             width="42.172001"
             height="29.52"
             style="fill:#ffffff;stroke:#000000;stroke-width:2.9519999;stroke-linecap:round;stroke-linejoin:round"
             id="rect4024" />
          <path
             inkscape:connector-curvature="0"
             style="fill:#ffffff;stroke:#000000;stroke-width:2.9519999;stroke-linecap:round;stroke-linejoin:round"
             d="m 1052.3,300.89 -41.314,0 20.658,-18.415 z"
             id="path4026" />
          <path
             inkscape:connector-curvature="0"
             style="fill:#ffffff;stroke:#000000;stroke-width:2.9519999;stroke-linecap:round;stroke-linejoin:round"
             d="m 1010.5,272.17 42.158,0 -21.08,18.415 z"
             id="path4028" />
        </g>
      </g>
    </g>
  </g>
</svg>
